<?xml version="1.0" encoding="UTF-8"?>
<svg id="_レイヤー_2" data-name="レイヤー 2" xmlns="http://www.w3.org/2000/svg" viewBox="0 0 311.05 361.33">
  <defs>
    <style>
      .cls-1 {
        fill: #fff;
      }

      .cls-2 {
        fill: #2d75a5;
      }

      .cls-3 {
        fill: #269ac2;
      }

      .cls-4 {
        fill: #fcec74;
      }
    </style>
  </defs>
  <g id="_レイヤー_1-2" data-name="レイヤー 1">
    <g>
      <path class="cls-1" d="m277.17,360.21h32.25c.96-2.33,1.5-4.81,1.4-7.14-.16-3.6-1.39-7.35-3.43-10.59.07-10.09.54-20.19.82-30.28-2.22-4.94-4.48-9.86-6.7-14.79l-5.19-11.53c.02-.92.03-1.84.02-2.77-.08-10.58-1.83-21.68-5.7-31.57-3.99-10.19-9.26-20-17.63-27.32-8.43-7.37-18.41-12.13-29.41-13.33-9.6-4.56-19.2-9.12-28.8-13.69-3.95.61-7.65.06-11.21-1.81-1.32-.7-2.47-1.57-3.49-2.56-.06,0-.11,0-.17,0-.11-.18-.23-.34-.34-.52-.69-.72-1.33-1.5-1.93-2.32-4.43.38-9.44-2.56-9.47-8.35-.04-9-.93-17.9-2.5-26.76-.91-5.16,2.65-8.48,6.66-9.21.19-.39.4-.78.67-1.13.2-.27.41-.54.61-.81.82-2.77,2.03-5.43,3.76-7.93,1.92-2.78,4.63-3.71,7.22-3.42,1.23-.65,2.55-.99,3.86-1,.12-.59.23-1.18.33-1.77.27-.32.54-.63.8-.96,6.61-8.55,7.67-20.79,2.08-30.21-1.49-2.52-3.48-4.75-5.78-6.56-1.48-12.08-6.52-23.72-15.04-32.53-2.6-2.69-5.52-4.97-8.66-6.83-.7-1.41-1.51-2.77-2.51-4.06-9.69-12.55-26.09-12.43-37.99-3.24-6.43,4.96-11.75,11.87-15.81,19.51-6.03,7.85-9.7,17.26-11.16,27.22-8.57.61-17.11,4.76-21.58,12.36-3.74,6.35-4.51,12.93-2.75,19.49,7.68,1.63,12.74,9.1,15.4,16.23.53,1.41,1,2.84,1.45,4.28,1.46,2.89,2.53,5.93,3.28,9.1,2.64,1.24,4.69,3.79,4.71,7.53.04,10.69-.15,20.2-7.9,28.48-5.63,6.01-13.36,10-21.02,12.8-7.39,2.69-14.93,4.46-22.55,5.94-.11.11-.22.21-.33.32-3.77.53-7.49,1.76-10.89,3.68-8.29,4.7-14.91,13.43-20.27,21.05-8.68,12.34-14.39,27.31-17.18,42.15-4.72,5.35-7.92,12.18-9.54,19.15-2.83,12.18-3.8,25.29-3.38,37.78.23,6.85,1.04,13.64,2.04,20.41.47,3.21,1.39,6.09,2.7,8.63.65-.16,1.34-.25,2.09-.25h264.36c1.09-.55,2.35-.87,3.81-.87Z"/>
      <path class="cls-4" d="m165.57,292.54c-.4-1.69-.8-3.39-1.15-5.12-.16-1.78-.32-3.55-.51-5.33-.12-1.14-.4-2.25-.82-3.26-.98-9.04-.89-18.37-1.4-27.36,5.79-3.62,8.67-10.2,7.26-17.24-.16-.8-.43-1.52-.77-2.17.08-.77.08-1.55-.02-2.35-.08-.61-.22-1.19-.39-1.75-1.08-.46-2.09-1.14-2.96-2.01-4.8-4.8-9.38-9.71-12.55-15.79-.35-.67-.57-1.37-.69-2.09-1.38-.46-2.82-.59-4.22-.34-1.58,9.77-8.06,15.82-14.29,22.47-.44,2.65-.67,5.36-.52,8.03.28,4.98,2.54,7.77,6.29,10.7.15.12.3.22.45.34-.03.35-.04.7-.01,1.06.14,1.88.36,3.72.65,5.54.03.52.09,1.05.2,1.58.25,1.17.45,2.35.62,3.54-.41,1.04-.64,2.23-.61,3.58.03,1.64.07,3.27.1,4.91.05,3.93-.01,7.86-.17,11.79-.5,1.1-.76,2.3-.69,3.51.07,1.3.11,2.59.12,3.88-1.47.96-2.72,2.27-3.67,3.83-.53,2.42-1.01,4.84-1.43,7.28,6.76,15.9,14.49,31.45,17.39,48.64.11.65.15,1.27.12,1.87.3.82.61,1.64.9,2.47,1.65-.4,3.09-1.28,4.25-2.51.03-.1.05-.2.08-.3,1.92-6.06,3.85-12.1,5.87-18.12.04-.49.1-.97.17-1.45.15-.11.29-.23.44-.35.69-2.02,1.38-4.04,2.09-6.05.45-1.79.92-3.58,1.44-5.35.79-2.7,1.7-5.53,2.78-8.33-2.4-5.62-3.79-11.66-4.35-17.78Z"/>
      <path class="cls-2" d="m216.39,41.65c-4.36-8.85-11.28-15.82-19.34-21.47-1.98-1.39-4.26-2.21-6.65-2.55-1.56-2.42-3.68-4.56-6.35-6.23-19.67-12.31-43.5-12.46-63.35-.39-16.7,10.16-27.63,26.34-37.39,42.81-.24.32-.49.62-.72.94-1.27,1.73-2.52,3.61-3.66,5.6.38,4.62.03,9.37-.31,13.88-.4,5.42-1.07,10.84-1.48,16.27.73.96,1.56,1.9,2.53,2.79,9.24,8.49,21.98,7.54,31.08-.45,3.46-3.04,6.66-6.44,9.84-9.77,3.38-3.54,6.66-7.18,9.86-10.88,1.42-9.08,4.57-18.41,10.27-25.28,4.16-5.01,9.59-8.56,16.27-8.68,6.37-.12,11.67,3.01,16.39,6.9,2.42-.28,5.04.48,7.14,2.49,4.96,4.75,6.26,12.27,6.7,18.81.26,3.83.32,7.65.31,11.48,0,.46,0,.92,0,1.38.91,2.48,2.06,4.89,3.65,7.2,3.3,4.78,7.97,8.07,13.18,9.12.63-.73,1.41-1.39,2.39-1.93,10.03-5.54,13.32-15.45,16.8-25.87.41-1.23,1-2.22,1.72-3-.05-2.27.01-4.5.26-6.79.72-6.48-3.47-12.79-9.12-16.38Z"/>
      <path class="cls-3" d="m283.29,360.21h21.48c2.52-2.23,4.66-4.93,6.28-8.05-1.19-1.11-2.03-2.56-2.21-4.22-2.68-25.37-7.81-50.38-13.98-75.12-.4-1.59-.34-3,.05-4.21-1.15-1.96-2.37-3.86-3.68-5.69-1.16-1.61-2.39-3.19-3.7-4.71-1.47-5.71-3.12-11.32-5.71-16.44.52-1.49.61-3.23.08-5.16-1.62-5.91-6.08-9.13-11.04-12.19-4.63-2.85-9.29-5.66-14.14-8.13-9.78-4.99-20.1-8.55-31.11-8.97-.88-.32-1.78-.62-2.67-.93-.03-.03-.05-.07-.08-.1l-.72-.83c-7.12-3.26-14.5-7.35-20.18-12.97-2.13,1.16-3.88,3.1-4.68,5.43-1.34,3.92-1.49,7.81-1.03,11.8-.11,2.21-.11,4.39.03,6.58-1.83,4.96-2.88,10.24-3.84,15.62-.87,4.85-1.59,9.73-2.17,14.62-8.51,15.48-13.61,32.08-16.88,49.14-.71,1.39-1.41,2.77-2.11,4.14-8.31,16.53-16.18,34.48-13.81,53.43.34,2.75,1.72,5.29,3.7,6.97h122.11Z"/>
      <path class="cls-3" d="m149.84,343.47c-.07-.1-.14-.21-.22-.35.29.49-.01.05-.32-.41-.48-15.75-7.18-30.75-14.21-44.72-.69-1.37-1.4-2.75-2.11-4.14-3.27-17.06-8.37-33.66-16.88-49.14-.58-4.89-1.3-9.77-2.17-14.62-.46-2.55-.94-5.08-1.51-7.57-.01-.02-.03-.03-.04-.04-5.98-8.26-11.55-16.8-16.83-25.52-.32.21-.63.44-.91.69-2.7,2.37-5.68,4.42-8.86,6.08-1.68.57-3.36,1.14-5.03,1.75-11.01.42-21.33,3.99-31.11,8.97-.78.4-1.54.81-2.31,1.23-.76,1.8-2.15,3.37-3.96,4.41-7.61,4.4-13.6,13.83-18.2,21.85-.27.47-.52.94-.78,1.41-7.64,33.77-21.14,66.23-23.61,101.03-.07.96-.27,1.82-.57,2.59.74,4.33,1.73,8.6,3.06,12.77.22.17.45.32.67.47h3.31s0,0,0,0h129.05c.06-.2.13-.39.18-.6.57.27,1.15.47,1.71.6h3.48c.42-.1.84-.24,1.24-.41.64.29,1.32.55,2.05.77,10.93,3.32,15.62-13.67,4.88-17.1Z"/>
      <g>
        <g>
          <path d="m150.26,176.13c-.56,0-1.12-.01-1.69-.03-21.83-.87-40.45-18.09-47.83-44.03-7.9-1.76-13.53-10.75-13.1-21.48.39-9.87,5.87-18.12,13.32-20.07,1.43-.37,2.89.48,3.27,1.91.37,1.43-.48,2.89-1.91,3.27-5.11,1.33-9.03,7.69-9.32,15.1-.34,8.53,4.17,15.8,10.06,16.21,1.15.08,2.11.88,2.4,1.99,6.43,24.56,23.44,40.95,43.33,41.75.49.02.98.03,1.47.03,19.85,0,38.12-16.04,45.8-40.41.22-.69.7-1.26,1.34-1.58.64-.33,1.39-.38,2.07-.15.69.23,1.4.36,2.12.39,6.01.28,11.2-6.64,11.55-15.35.35-8.7-4.27-15.98-10.28-16.22-1.48-.06-2.63-1.3-2.57-2.78.06-1.48,1.29-2.62,2.78-2.57,8.97.36,15.88,10.13,15.42,21.78-.46,11.43-7.86,20.49-16.6,20.49-.17,0-.34,0-.51-.01-.32-.01-.65-.04-.97-.08-8.81,25.32-28.58,41.83-50.13,41.83Z"/>
          <g>
            <path d="m153.75,360.6c-1.12,0-2.17-.71-2.54-1.84l-49.84-150.33c-.46-1.4.3-2.92,1.7-3.38,1.4-.46,2.92.3,3.38,1.7l49.84,150.33c.46,1.4-.3,2.92-1.7,3.38-.28.09-.56.14-.84.14Z"/>
            <path d="m153.75,360.6c-.24,0-.48-.03-.73-.1-1.42-.4-2.25-1.88-1.85-3.3l43.22-153.5c.4-1.42,1.88-2.25,3.3-1.85,1.42.4,2.25,1.88,1.85,3.3l-43.22,153.5c-.33,1.18-1.41,1.95-2.58,1.95Z"/>
            <path d="m310.26,355.91c-.58-27.02-3.18-54.2-11.24-80.11-3.92-12.6-8.98-25.02-15.51-36.51-5.83-10.25-13.17-19.85-22.86-26.73-5.92-4.2-12.59-6.94-19.65-8.51-7.38-1.64-14.93-2.28-22.28-4.08-3.42-.84-4.88,4.44-1.46,5.28,12.5,3.07,25.79,2.99,37.14,9.76,9.58,5.71,16.84,14.53,22.57,23.96,6.55,10.76,11.56,22.5,15.53,34.43,4.12,12.36,7,25.1,8.91,37.98,2.19,14.73,3.05,29.64,3.37,44.52.08,3.52,5.55,3.53,5.47,0h0Z"/>
            <path d="m8.02,356.79c-3.5-13.41-2.39-27.24-.56-40.82,1.77-13.16,3.97-26.17,7.91-38.88,3.66-11.79,8.67-23.11,14.77-33.84,5.62-9.87,12.43-19.31,21.46-26.34,5.24-4.08,11.06-6.86,17.43-8.66,6.83-1.92,13.86-2.99,20.7-4.86,3.58-.98,2.06-6.56-1.54-5.58-6.29,1.72-12.73,2.76-19.04,4.41-6.22,1.62-12.2,3.97-17.55,7.58-9.99,6.75-17.75,16.21-24.03,26.4-6.61,10.75-12.04,22.37-16.15,34.3-4.47,12.99-7.11,26.35-9.01,39.93-2.23,15.94-4.12,32.07.01,47.88.94,3.6,6.52,2.07,5.58-1.54h0Z"/>
            <path d="m219.64,243.52c-1.31,0-2.45-.96-2.65-2.3l-6.13-42.43c-.21-1.46.8-2.82,2.27-3.03,1.47-.21,2.82.8,3.03,2.27l6.13,42.43c.21,1.46-.8,2.82-2.27,3.03-.13.02-.26.03-.39.03Z"/>
            <g>
              <path d="m230.23,259.65c-.19,0-.37-.02-.56-.06l-32.18-6.9c-1.45-.31-2.37-1.73-2.06-3.18.31-1.45,1.74-2.37,3.18-2.06l32.18,6.9c1.45.31,2.37,1.73,2.06,3.18-.27,1.26-1.38,2.12-2.62,2.12Z"/>
              <path d="m187.32,327.08c-.51,0-1.03-.15-1.49-.45-1.23-.82-1.56-2.49-.73-3.71l43.67-65.13c.82-1.23,2.49-1.56,3.71-.73,1.23.82,1.56,2.49.73,3.71l-43.67,65.13c-.52.77-1.36,1.19-2.23,1.19Z"/>
            </g>
            <path d="m83.83,247.58c-.17,0-.33-.02-.5-.05-1.45-.28-2.41-1.68-2.13-3.13l7.77-40.95c.28-1.45,1.68-2.41,3.13-2.13,1.45.28,2.41,1.68,2.13,3.13l-7.77,40.95c-.24,1.28-1.37,2.18-2.63,2.18Z"/>
            <g>
              <path d="m73.23,259.76c-1.24,0-2.35-.86-2.62-2.12-.31-1.45.61-2.87,2.06-3.18l32.18-6.9c1.45-.31,2.87.61,3.18,2.06.31,1.45-.61,2.87-2.06,3.18l-32.18,6.9c-.19.04-.38.06-.56.06Z"/>
              <path d="m116.14,327.19c-.86,0-1.71-.42-2.23-1.19l-43.67-65.13c-.82-1.23-.5-2.89.73-3.71,1.23-.82,2.89-.5,3.71.73l43.67,65.13c.82,1.23.5,2.89-.73,3.71-.46.31-.98.45-1.49.45Z"/>
            </g>
            <path d="m111.56,157.48c.69,9.99,1.39,19.97,2.08,29.96.11,1.56,1.25,2.89,2.89,2.89,1.48,0,3-1.33,2.89-2.89-.69-9.99-1.39-19.97-2.08-29.96-.11-1.56-1.25-2.89-2.89-2.89-1.48,0-3,1.33-2.89,2.89h0Z"/>
            <path d="m185.02,155.77v31.63c0,3.72,5.78,3.73,5.78,0v-31.63c0-3.72-5.78-3.73-5.78,0h0Z"/>
            <path d="m190.35,186.52c-11.66,6.94-24.89,12.67-38.53,13.9-1.66.15-3.54,1.76-2.79,3.66,3.75,9.44,7.59,18.83,11.53,28.2.75,1.78,2.42,2.65,4.25,1.73,10.35-5.23,20.43-10.97,30.22-17.19,3.13-1.99.23-7-2.92-4.99-9.78,6.22-19.87,11.96-30.22,17.19,1.42.58,2.83,1.15,4.25,1.73-3.93-9.36-7.78-18.76-11.52-28.2-.93,1.22-1.86,2.44-2.79,3.66,14.7-1.32,28.86-7.2,41.45-14.69,3.2-1.9.29-6.9-2.92-4.99h0Z"/>
            <path d="m109.24,190.15c4.83,2.89,9.89,5.44,14.93,7.92,3.65,1.8,7.35,3.51,11.1,5.08,2.99,1.25,6.07,2.48,9.25,3.15,2.51.53,6.6.96,7.88-2-1.76-.74-3.52-1.49-5.28-2.23-3.75,9.44-7.59,18.83-11.53,28.2,1.42-.58,2.83-1.15,4.25-1.73-10.97-5.55-21.65-11.67-31.99-18.33-3.14-2.02-6.04,2.98-2.92,4.99,10.34,6.66,21.02,12.78,31.99,18.33,1.83.93,3.5.05,4.25-1.73,3.93-9.36,7.78-18.76,11.53-28.2,1.2-3.02-3.99-5.24-5.28-2.23-.21.49-.05.07.19-.18-.3.31.77-.48.18-.16-.29.16.87-.33.2-.12-.68.22.67.04.06,0-.41-.03-.84-.04-1.25-.05-.55-.01.75.15.2.03-.1-.02-.2-.03-.3-.05-.32-.06-.64-.12-.96-.19-2.99-.67-5.87-1.82-8.69-2.99-.08-.03-.84-.35-.23-.1-.19-.08-.39-.17-.58-.25-.43-.19-.86-.37-1.29-.56-.88-.39-1.75-.78-2.62-1.18-1.67-.77-3.34-1.57-4.99-2.38-3.08-1.51-6.12-3.08-9.14-4.7-2.02-1.08-4.05-2.16-6.02-3.34-3.2-1.91-6.11,3.08-2.92,4.99h0Z"/>
            <g>
              <path d="m128.5,233.62c1.4,3.56,2.91,7.07,4.58,10.51.81,1.68,1.66,3.34,2.54,4.98.84,1.57,1.65,3.28,2.98,4.51,2.91,2.68,7.49,1.85,11.12,1.8,3.99-.05,7.99-.1,11.98-.15,1.39-.02,2.3-.91,2.79-2.12,2.58-6.44,5.16-12.88,7.75-19.32.58-1.45-.63-3.18-2.02-3.56-1.65-.45-2.97.56-3.56,2.02-2.58,6.44-5.16,12.88-7.75,19.32l2.79-2.12c-3.59.05-7.17.09-10.76.14-1.71.02-3.42.04-5.13.07-1.01.01-2.64.35-3.38-.42-.89-.91-1.44-2.37-2.03-3.49-.8-1.51-1.57-3.03-2.32-4.57-1.45-2.99-2.78-6.03-4-9.13-.57-1.45-1.94-2.46-3.56-2.02-1.38.38-2.59,2.1-2.02,3.56h0Z"/>
              <path d="m139.06,258.45c-1.14,11.14-2.27,22.29-3.41,33.43-.16,1.56,1.44,2.89,2.89,2.89,1.7,0,2.73-1.33,2.89-2.89,1.14-11.14,2.27-22.29,3.41-33.43.16-1.56-1.44-2.89-2.89-2.89-1.7,0-2.73,1.33-2.89,2.89h0Z"/>
              <path d="m165.81,289.28c-1.21-9.97-2.42-19.93-3.62-29.9-.19-1.55-1.19-2.89-2.89-2.89-1.42,0-3.08,1.33-2.89,2.89,1.21,9.97,2.42,19.93,3.62,29.9.19,1.55,1.19,2.89,2.89,2.89,1.42,0,3.08-1.33,2.89-2.89h0Z"/>
            </g>
          </g>
          <path d="m172.16,43.41c-5.34-4.57-12.2-7.76-19.3-7.95-7.38-.19-13.85,3.66-17.42,10.08-3.33,5.99-4.22,12.92-6.02,19.44-.89,3.21-1.84,5.86-3.63,8.65-1.89,2.95-4.19,5.59-6.77,7.94-5.83,5.3-13.41,8.99-21.22,9.88-1.55.18-2.89,1.2-2.89,2.89,0,1.43,1.33,3.07,2.89,2.89,7.46-.85,14.6-3.53,20.73-7.9,5.76-4.11,11.18-9.67,14.11-16.2,2.76-6.13,3.59-12.81,5.55-19.19,1.76-5.69,4.86-11.05,11.06-12.42,6.32-1.39,13.93,1.76,18.83,5.95,1.19,1.01,2.92,1.16,4.09,0,1.04-1.04,1.19-3.07,0-4.09h0Z"/>
          <path d="m178.35,49.31c4.85,5.91,5.52,14.07,6.53,21.39,1.1,7.97,2.81,16.01,8.5,22.08,3.37,3.6,7.74,5.93,12.66,6.41,1.56.15,2.89-1.44,2.89-2.89,0-1.69-1.33-2.74-2.89-2.89-7.05-.68-11.76-7.73-13.6-14.01-2.13-7.25-2.12-14.91-4.04-22.21-1.16-4.4-3.07-8.45-5.96-11.97-.99-1.21-3.06-1.03-4.09,0-1.19,1.2-.99,2.88,0,4.09h0Z"/>
          <path d="m173.09,7C162.31-.24,148.63-1.51,136.22,1.57c-11.43,2.83-21.75,9.22-30.36,17.13-7.31,6.71-13.44,14.64-18.26,23.3-4.65,8.35-8.56,17.49-10.18,26.96-1.73,10.1-.63,21.4,7.87,28.28,1.21.98,2.9,1.19,4.09,0,1.02-1.02,1.22-3.1,0-4.09-.79-.64-1.54-1.33-2.23-2.08-.8-.86-.95-1.05-1.67-2.18-1.16-1.84-1.58-2.83-2.14-4.83-.62-2.18-.76-3.3-.86-5.41-.1-2.1,0-4.22.25-6.31.08-.72.24-1.7.44-2.79.23-1.2.49-2.4.8-3.59.56-2.21,1.23-4.38,1.99-6.53,1.47-4.17,3.12-7.86,5.22-11.89,8.93-17.14,23.5-32.8,42.17-39.12,12.18-4.12,25.91-3.78,36.83,3.55,1.3.87,3.2.25,3.96-1.04.83-1.42.26-3.08-1.04-3.96h0Z"/>
          <path d="m180,16.34c12.42,1.82,23.36,9.43,30.1,19.94,3.7,5.77,6.15,12.19,7.54,18.89,1.4,6.78,1.93,14.25.42,21.05-1.58,7.1-5.41,13.43-10.56,18.51-2.65,2.62,1.44,6.71,4.09,4.09,5.16-5.1,9.19-11.37,11.32-18.33,2.33-7.57,2.08-15.76.91-23.51-2.2-14.53-9.42-28.15-21.18-37.14-6.13-4.69-13.44-7.96-21.09-9.08-1.54-.23-3.11.38-3.56,2.02-.37,1.36.46,3.33,2.02,3.56h0Z"/>
        </g>
        <path d="m169.62,107.52c4.22,0,4.23-6.56,0-6.56s-4.23,6.56,0,6.56h0Z"/>
        <path d="m134.14,107.57c4.22,0,4.23-6.56,0-6.56s-4.23,6.56,0,6.56h0Z"/>
        <path d="m147,124.93c2.92,2.99,8.14,2.99,11.08.03.73-.73.79-2.06,0-2.79-.78-.72-2.01-.78-2.79,0-.13.13-.29.24-.41.38.04-.05.36-.25.14-.11-.08.05-.15.11-.23.15-.15.1-.31.19-.48.27-.07.04-.19.07-.25.12.05-.04.42-.16.16-.07-.35.12-.7.23-1.07.3-.07.01-.15.02-.22.04.56-.11.28-.04.14-.03-.18.02-.37.02-.56.02-.17,0-.33,0-.5-.02-.08,0-.42-.05-.07,0,.36.05-.01,0-.07-.02-.35-.07-.67-.2-1.01-.29-.21-.06.46.22.11.05-.07-.03-.13-.06-.2-.1-.16-.08-.32-.17-.48-.27-.08-.05-.15-.11-.23-.15-.19-.11.38.32.09.07-.14-.12-.28-.25-.41-.38-.72-.74-2.07-.78-2.79,0-.73.79-.77,2,0,2.79h0Z"/>
        <path d="m139.43,141.06c7.8,5.04,17.92,5.22,25.94.57,2.19-1.27.21-4.68-1.99-3.4-6.86,3.98-15.31,3.73-21.96-.57-2.14-1.38-4.11,2.03-1.99,3.4h0Z"/>
      </g>
    </g>
  </g>
</svg>